# xmcd
#
# Track frame offsets:
#	150
#	11375
#	29147
#	45000
#	62862
#	75950
#	87950
#	103775
#	117112
#	131062
#
# Disc length: 1854
#
# Revision: 2
# Processed by: cddbd v1.5.1PL0 Copyright (c) Steve Scherf et al.
# Submitted via: audiograbber 1.81.02
# Normalized: r1:DSETVAR1
#
DISCID=73073c0a
DTITLE=Various Artist - Low Down Delta Blues
DYEAR=1900
DGENRE=Blues
TTITLE0=John Lee Hooker - Boom Boom
TTITLE1=Mississippi John Hurt - Lonesome Blues
TTITLE2=Leadbelly - Ain't Goin' Down To The Well No Mo' - Goin' Down Old Hannah
TTITLE3=Memphis Slim - Blue And Lonesome
TTITLE4=Big Joe Williams - Sugar Mama
TTITLE5=Lightning Slim - My Babe
TTITLE6=Mississippi John Hurt - Baby What's Wrong With You
TTITLE7=John Lee Hooker - I'm In The Mood
TTITLE8=Leadbelly - Fannin St.
TTITLE9=Big Joe Williams - Baby Please Don't Go
EXTD=
EXTT0=
EXTT1=
EXTT2=
EXTT3=
EXTT4=
EXTT5=
EXTT6=
EXTT7=
EXTT8=
EXTT9=
PLAYORDER=
